<?xml version="1.0" encoding="UTF-8"?><svg id="_레이어_1" xmlns="http://www.w3.org/2000/svg" viewBox="0 0 80 80"><path d="M55.918,18.911c-.48-.482-1.123-.772-1.802-.819-.091-.006-.172-.01-.234-.01-.234,0-.469.011-.702.033-.35.034-.698.092-1.042.176-.229.056-.455.123-.679.201-.335.117-.664.26-.983.427-.638.335-1.237.771-1.773,1.307-.375.375-.666.749-.923,1.123-2.621,3.814.357,7.502-1.829,9.687l-.639.639c-3.115,3.115-8.211,3.115-11.326,0l-.639-.639c-2.186-2.186-1.829-9.687-1.829-9.687,0,0-3.724-.761-6.907-1.155l.597-8.195c-6.152,0-13.21,6.176-13.21,13.21l8.194-.597c.393,3.183,1.153,6.908,1.153,6.908,0,0,7.718-.143,9.69,1.829.121.121.517.519.639.639,3.289,3.226,2.895,8.536,0,11.326-.123.119-.518.518-.639.639-1.972,1.972-5.84-.835-9.69,1.829-.374.259-.748.551-1.12.923-.536.536-.972,1.135-1.307,1.773-.168.319-.31.648-.427.983-.078.224-.145.45-.201.679-.084.343-.142.692-.176,1.042-.022.233-.033.468-.033.702,0,.053.002.12.006.195.035.691.329,1.346.818,1.835l.005.005-6.911.966,10.417,10.417.966-6.911.005.005c.493.493,1.153.788,1.849.819.069.003.131.005.181.005.234,0,.469-.011.702-.033.35-.034.698-.092,1.042-.176.229-.056.455-.123.679-.201.335-.117.664-.26.983-.427.638-.335,1.237-.771,1.773-1.307.375-.375.666-.749.923-1.123,2.621-3.814-.357-7.502,1.829-9.687.121-.121.517-.518.639-.639,3.262-3.226,8.541-2.958,11.326,0,.117.125.518.518.639.639,2.186,2.186,1.829,9.687,1.829,9.687,0,0,3.724.761,6.907,1.155l1.498,8.894c1.308-5.811,6.132-10.609,11.814-11.814l-8.893-1.497c-.393-3.183-1.153-6.908-1.153-6.908,0,0-7.718.143-9.69-1.829-.121-.121-.52-.515-.639-.639-3.221-3.357-2.953-8.494,0-11.326.124-.118.518-.518.639-.639,1.972-1.972,5.84.835,9.69-1.829.374-.259.748-.551,1.12-.923.536-.536.972-1.135,1.307-1.773.168-.319.31-.648.427-.983.078-.224.145-.45.201-.679.084-.343.142-.692.176-1.042.022-.233.033-.468.033-.702,0-.055-.003-.125-.007-.204-.038-.688-.331-1.34-.818-1.827l-.004-.004,6.911-.966-10.417-10.417-.966,6.911h0ZM40.334,43.918c-2.915.447-5.39-2.028-4.944-4.943.278-1.816,1.763-3.301,3.579-3.579,2.915-.446,5.39,2.028,4.943,4.943-.278,1.817-1.763,3.301-3.579,3.58Z"/></svg>