<?xml version="1.0" encoding="UTF-8"?><svg id="_레이어_1" xmlns="http://www.w3.org/2000/svg" viewBox="0 0 80 80"><circle cx="31.273" cy="33.535" r="2.586"/><circle cx="31.273" cy="46.465" r="2.586"/><ellipse cx="61.333" cy="40" rx="4.202" ry="6.465"/><ellipse cx="70.061" cy="40" rx="1.939" ry="6.465"/><path d="M48.081,33.535c-.309,0-.612.022-.909.064-.48.068-.943.226-1.378.442-2.034,1.011-9.717,4.665-14.521,4.665s-12.487-3.654-14.521-4.665c-.434-.216-.897-.374-1.378-.442-.297-.042-.601-.064-.909-.064-3.57,0-6.465,2.894-6.465,6.465s2.894,6.465,6.465,6.465c.309,0,.612-.022.909-.064.48-.068.943-.226,1.378-.442,2.034-1.011,9.717-4.665,14.521-4.665s12.487,3.654,14.521,4.665c.434.216.898.374,1.378.442.297.042.601.064.909.064,3.57,0,6.465-2.894,6.465-6.465s-2.894-6.465-6.465-6.465Z"/></svg>