<?xml version="1.0" encoding="UTF-8"?><svg id="_레이어_1" xmlns="http://www.w3.org/2000/svg" viewBox="0 0 80 80"><circle cx="55.315" cy="55.314" r="4.243" style="fill:#040000;"/><circle cx="40" cy="14.243" r="4.243" style="fill:#040000;"/><circle cx="30.135" cy="16.207" r="4.243" style="fill:#040000;"/><circle cx="40" cy="27.853" r="4.243" style="fill:#040000;"/><circle cx="31.419" cy="31.419" r="4.243" style="fill:#040000;"/><circle cx="48.581" cy="31.419" r="4.243" style="fill:#040000;"/><circle cx="27.853" cy="40" r="4.243" style="fill:#040000;"/><circle cx="31.419" cy="48.601" r="4.243" style="fill:#040000;"/><circle cx="40" cy="52.122" r="4.243" style="fill:#040000;"/><circle cx="48.592" cy="48.601" r="4.243" style="fill:#040000;"/><circle cx="21.787" cy="21.787" r="4.243" style="fill:#040000;"/><circle cx="16.198" cy="30.141" r="4.243" style="fill:#040000;"/><circle cx="14.243" cy="40" r="4.243" style="fill:#040000;"/><circle cx="16.198" cy="49.859" r="4.243" style="fill:#040000;"/><circle cx="21.787" cy="58.207" r="4.243" style="fill:#040000;"/><circle cx="30.135" cy="63.802" r="4.243" style="fill:#040000;"/><circle cx="40" cy="65.757" r="4.243" style="fill:#040000;"/><circle cx="49.866" cy="63.802" r="4.243" style="fill:#040000;"/><circle cx="49.86" cy="16.207" r="4.243" style="fill:#040000;"/><circle cx="58.208" cy="21.787" r="4.243" style="fill:#040000;"/><circle cx="63.801" cy="30.141" r="4.243" style="fill:#040000;"/><circle cx="65.757" cy="40" r="4.243" style="fill:#040000;"/></svg>