<?xml version="1.0" encoding="UTF-8"?><svg id="_레이어_1" xmlns="http://www.w3.org/2000/svg" viewBox="0 0 80 80"><path d="M49.974,23.544c-.218.218-.417.449-.597.689-.291.388-.507.827-.662,1.287-.723,2.153-3.572,10.17-6.969,13.566s-11.413,6.246-13.566,6.969c-.46.155-.899.37-1.287.662-.24.18-.47.379-.689.597-2.525,2.525-2.525,6.618,0,9.142s6.618,2.525,9.142,0c.218-.218.417-.449.597-.689.291-.388.507-.827.662-1.287.723-2.153,3.572-10.17,6.969-13.566,3.397-3.397,11.413-6.246,13.566-6.969.46-.155.899-.37,1.287-.662.24-.18.47-.379.689-.597,2.525-2.525,2.525-6.618,0-9.142s-6.618-2.525-9.142,0Z"/><ellipse cx="17.781" cy="51.885" rx="4.202" ry="6.465"/><ellipse cx="67.798" cy="28.115" rx="4.202" ry="6.465"/><ellipse cx="9.939" cy="45.42" rx="1.939" ry="6.465"/></svg>