<?xml version="1.0" encoding="UTF-8"?>
<svg xmlns="http://www.w3.org/2000/svg" viewBox="0 0 1800 1100" fill="currentColor">
  <path d="M921.9,206.2c31.6.3,56.9-34.4,56.5-77.5-.4-43.1-26.4-78.4-58.1-78.7-31.6-.3-56.9,34.4-56.5,77.5.4,43.1,26.4,78.4,58.1,78.7Z"/>
  <path d="M1558.4,195.9c-23.1-9.5-59.4,4.9-81,32-21.6,27.2-20.4,56.8,2.7,66.3,12.3,5,28.2,3.3,43.7-3.4.4,1.9,1.1,3.8,2.1,5.6,14.2,24.2,37.1,29,58.1,31.3,55.6,6.1,54-35.9,28.3-49.9-19.8-10.8-39-12.9-54.7-11.6,1.2-1.3,2.3-2.7,3.4-4.1,21.6-27.2,20.4-56.8-2.7-66.3h0Z"/>
  <path d="M613.8,755.4c-30.1-16.4-59-12.7-76.2-7.6-9.8,2.9-14.9,13.3-11.9,22.6-32.1-10.2-61.3-5.8-80.2-.3-15.1,4.4-22,22-14,35.7,19.3,33.1,50.6,39.6,79.3,42.7,54.9,6,68.9-22.3,59.1-45.6,5.2,1.1,10.4,1.8,15.5,2.4,55.6,6.1,54-35.9,28.3-49.9h0Z"/>
  <path d="M1273.7,884.5c-7.4-27.1-28.4-37.6-48.1-45.2-52.2-20.2-61.4,20.7-40.2,40.9,24.9,23.7,53.7,27.4,71.6,27,11.5-.3,19.7-11.5,16.7-22.7h0Z"/>
  <path d="M357.8,157.4c30.8,25.5,50.7,14.5,54.5-3.4,3.7,9.9,9.3,19.7,16.6,28.4,23.6,28.4,56,35.5,72.5,15.8,16.5-19.6,10.8-58.6-12.8-86.9-23.6-28.4-56-35.5-72.5-15.8-6.8,8.1-9.8,19.4-9.4,32-16.2-27.6-40.8-39.4-57.2-44.5-11-3.4-22.4,4.6-23,16.2-1.5,28,15,44.6,31.3,58.2h0Z"/>
  <path d="M1732.6,615.7c-46.7-161-112.5-227.4-152.7-173.3-40.2,54-214-145-181.7-202.9,53.4-95.8,151.1-101.3,190.8-87.9,39.6,13.4,102.9-98.9,28.9-98.2-74,.7-144.7,54.4-181.2,78.4-33.5,22-88.4-54.6-113.4-10.2-3.9,7-5.9,14.9-6,22.8-.3,26.3-5,107.4-53,71.8-56.9-42.2-75.4-12.9-87.9,57.3-12.4,70.2,138.8-41.1,128.7,46.2-1.1,9.2-2.5,22.5-4.3,29.9-47.1,15-100.5-4.5-122.3-13.4-54.2-22.2-52.1-145.4-152.7-48-6.4,6.2-16.4,6.5-23.1.6-22.9-20-73.5-62.7-100.2-29.5-38.7,48.2-48.3,90.1-95,66.4-55.7-28.3-169.5-15.3-229,82-11.3,18.4-16.4,36.1-17.2,52-73.6,10.4-138.7,41.9-127.2-6.8,12.5-53.4,60.9-113.7,84.9-130,24-16.2,37,65,148.8-60.3,111.8-125.3-28-164.3-28-117.8.2,196.8-89.8,89.9-115.8,92.3-24.8,2.2-27.4,49-67.6,14-26.1-22.8-59.5-41.8-102.5-11.6-42.3,29.8-14.7,77.1-155.9,87.6-41.3,3.1-36.9,25.4-14.6,45.5-27.5-12.3-53.2-8.7-69-4.1-11.1,3.3-16.1,16.2-10.3,26.2,14.2,24.2,37.1,29,58.1,31.3,45.3,4.9,52.6-21.9,39.9-39.7,16.3,9.9,36.1,17.5,54.7,19.1,43.5,3.9,96.3,41.9-15.3,130.3-103.6,82-196.9,123.7-169.7,264.5,6.7,34.8-5.8,32.7-12.5,53.6-6.8,20.9,14,50,48,86,39.5,41.7,136.2,22.7,138-9.9,7.8,1.8,15.7,2.9,23.4,3.7,75.8,8.3,73.6-48.9,38.5-68.1-41.1-22.4-80.4-17.3-103.8-10.4-11.1,3.3-17.8,13.7-17.3,24.4-35.5-20.4-69.6-40.9-55.9-55.9,19.3-21.1,80.2,12.3,166.2-92.3,7.2-8.8,13.8-18.1,20.6-27.1,51-67,29.4-112.3,78.9-123.2,13.8-3.1,70.7-7,48.8,33.7-23.9,44.5-68.4,86.4-29.7,120.6,15.9,14,114.4,23.3,188.2-69.5,40.9-51.4,44.9-112.6,35.8-156.4,16.2-6,22-15.5,26.5-26.9,36.6-94.2,119.1-123.9,151.1-90.3,32.1,33.6-25.7,130.2-28.9,184.7-3.2,54.5,39.3.4-26.1,107.5-65,106.5-64.1,217.3,64.1,231.9,128.2,14.6-44,55.5-38,94.7,6,39.2,125.1,69.7,166.3-17.4,41.2-87.1-76.5-87.8-90.2-141.1-9.9-38.4,17-277.2,90.2-208.3,73.3,68.9,54.6,157.7,155.4,170.3,100.8,12.6,142.3-101.5,9.5-216.8-132.8-115.4-111.7-115.4-85.6-137.1,26.1-21.8-30.7-106.6,33.4-110.4,56.6-3.4,87.6,100.4,166.4,110.3-1.1,2.8-2.1,5.8-3.1,9-21.3,69.3,11.9,117.7,71.1,153.1,31.9,19.1,215.4,100.4,204.6,154.4-10.8,54-75,52.2-91.2,92-16.2,39.9,58,132.8,212.2,55.2,58.9-29.6-11.3-115.9-45.2-75.2-33.8,40.7-64.2-.9-5.2-113.5,39.2-74.8-191.9-178.3-163.4-258.6,15.2-42.9,132.4,124.8,179.5,68.1,47-56.8,48.7,141.3,52.2,164,3.5,22.7,132.4,59.4,88.1-93.3h0Z"/>
</svg>