<svg xmlns="http://www.w3.org/2000/svg" viewBox="0 0 1920 538.756">
  <rect x="971.534" y="106.809" width="7.763" height="57.283"/><polygon points="1049.167 164.092 1072.456 164.092 1072.457 49.526 1033.64 49.526 1033.64 106.809 1049.167 106.809 1049.167 164.092"/><rect x="1018.114" y="106.809" width="15.527" height="57.283"/><rect x="987.061" y="106.809" width="15.527" height="57.283"/><rect x="971.534" y="0" width="7.763" height="49.526"/><path d="M987.061,319.575h15.526v-81.834h-15.526v-73.649h-7.764v73.649h-7.763v-73.649h-7.763v73.649h-7.763v-73.65h-7.763v-57.282h-7.763v57.282h7.763v73.65h-7.763v-73.65h-7.763v-57.282h-15.527v57.282h-15.526v-57.282h-15.526v57.282h-15.527v73.65h-23.29v-73.65h-23.29v-57.282h-62.106v130.932h-38.817v-73.65h-85.396v155.483h-46.58v-81.834h-107.885v187.424h53.942v-105.59h53.942v105.59h-53.942v113.59h54.164v-113.59h46.58v113.59h46.58v-113.59h38.594v-105.59h38.817v105.59h31.053v-105.59h31.053v105.59h23.29v-105.59h23.29l.222,105.59h15.305v-105.59h-15.526v-81.833h15.527v81.834h15.415v105.59h15.527v-105.59h-15.416v-81.833h15.527v81.834h15.526v105.59h7.763v-105.59h7.763v105.59h7.763v-105.59h-7.763v-81.833h7.763v81.834h7.763v105.59h7.763v-105.59h7.763v105.59h7.763v-105.59ZM684.293,425.165h-46.357v-105.59h46.357v105.59ZM723.109,319.575h-38.816v-81.833h38.816v81.833ZM792.979,319.575h-31.053v-81.833h31.053v81.833ZM792.979,237.741v-73.649h31.053v73.649h-31.053ZM847.322,319.575h-23.29v-81.833h23.29v81.833ZM901.664,237.741h-15.526v-73.649h15.526v73.649ZM917.191,237.741v-73.649h15.527v73.649h-15.527ZM940.481,319.575h-7.763v-81.833h7.763v81.833ZM971.534,319.575h-7.763v-81.833h7.763v81.833ZM979.297,237.742h7.764v81.833h-7.764v-81.833Z"/><rect x="963.771" y="49.526" width="7.763" height="57.283"/><rect x="979.297" y="49.526" width="7.763" height="57.283"/><polygon points="1018.114 0 987.061 0 987.061 49.526 1002.587 49.526 1002.587 106.809 1018.114 106.809 1018.114 0"/><rect x="956.008" y="106.809" width="7.763" height="57.282"/><rect x="940.481" y="0" width="7.763" height="49.526"/><polygon points="870.611 164.092 870.611 106.809 886.138 106.809 886.138 49.526 847.322 49.526 847.322 164.092 870.611 164.092"/><polygon points="917.191 106.809 917.191 49.526 932.717 49.526 932.717 0 901.664 0 901.665 106.809 917.191 106.809"/><rect x="932.718" y="49.526" width="7.763" height="57.283"/><polygon points="956.007 106.809 956.007 49.526 963.77 49.526 963.77 0 956.007 0 956.007 49.526 948.244 49.526 948.244 106.809 956.007 106.809"/><polygon points="1436.751 237.741 1328.866 237.741 1328.866 319.575 1382.809 319.575 1382.809 425.165 1436.751 425.165 1436.751 237.741"/><path d="M1328.645,319.575h-46.58v-155.483h-85.396v73.649h-38.817V106.809h-62.106v57.283h31.053v73.649h-31.053v-73.649h-23.29v73.649h-23.289v-73.649h-15.527v73.649h-15.527v-73.649h-15.526v73.65h15.526v81.833h-15.416v105.59h15.527v-105.59h15.416v105.59h15.527v-105.59h23.289v105.59h23.29v-105.59h31.053v105.59h31.053v-105.59h38.817v105.59h38.816v-105.59h46.579v105.59h-46.579v113.59h46.58v-113.59h46.58v-105.59ZM1049.167,319.575h-15.527v-81.833h15.527v81.833ZM1095.746,319.575h-23.29v-81.833h23.29v81.833ZM1157.852,319.575h-31.053v-81.833h31.053v81.833ZM1235.485,319.575h-38.816v-81.833h38.816v81.833Z"/><rect x="1436.751" y="425.165" width="61.757" height="113.59"/><polygon points="1498.508 319.575 1498.508 425.165 1560.266 425.165 1560.266 538.756 1629.891 538.756 1629.891 319.575 1498.508 319.575"/><rect x="1157.852" y="425.165" width="38.817" height="113.59"/><rect x="1328.645" y="425.165" width="54.164" height="113.59"/><rect x="1095.746" y="425.165" width="31.053" height="113.59"/><rect x="1049.167" y="425.165" width="23.29" height="113.59"/><rect x="1018.225" y="425.165" width="15.416" height="113.59"/><rect x="987.06" y="425.165" width="15.637" height="113.59"/><rect x="421.492" y="425.165" width="61.757" height="113.59"/><rect x="723.109" y="425.165" width="38.817" height="113.59"/><rect x="792.979" y="425.165" width="31.053" height="113.59"/><rect x="847.322" y="425.165" width="23.511" height="113.59"/><rect x="886.138" y="425.165" width="15.416" height="113.59"/><rect x="917.08" y="425.165" width="15.637" height="113.59"/><polygon points="290.109 319.575 290.109 538.756 359.734 538.756 359.734 425.165 421.492 425.165 421.492 319.575 290.109 319.575"/><rect x="971.534" y="425.165" width="7.763" height="113.59"/><rect x="956.007" y="425.165" width="7.763" height="113.59"/><rect x="940.481" y="425.165" width="7.763" height="113.59"/>
</svg>