<svg xmlns="http://www.w3.org/2000/svg" viewBox="0 0 1920 717">
  <rect x="1392.528" y="253.059" width="42.198" height="210.882"/><rect x="1482.198" y="253.059" width="47.473" height="210.882"/><rect x="1629.891" y="463.941" width="290.109" height="5.272"/><rect x="1577.143" y="253.059" width="52.747" height="210.882"/><rect x="1629.891" y="173.978" width="290.109" height="15.816"/><rect x="1529.671" y="173.978" width="47.472" height="15.816"/><rect x="1434.726" y="173.978" width="47.473" height="15.816"/><rect x="1577.143" y="158.162" width="52.747" height="15.816"/><rect x="1482.198" y="158.162" width="47.473" height="15.816"/><rect x="1392.528" y="158.162" width="42.198" height="15.816"/><rect x="1629.891" y="200.338" width="290.109" height="10.544"/><rect x="1529.671" y="200.338" width="47.472" height="10.544"/><rect x="1434.726" y="200.338" width="47.473" height="10.544"/><rect x="1434.726" y="221.426" width="47.473" height="10.544"/><rect x="1529.671" y="221.426" width="47.472" height="10.544"/><rect x="1629.891" y="221.426" width="290.109" height="10.544"/><rect x="1577.143" y="189.794" width="52.747" height="10.544"/><rect x="1482.198" y="189.794" width="47.473" height="10.544"/><rect x="1392.528" y="189.794" width="42.198" height="10.544"/><rect x="1577.143" y="210.882" width="52.747" height="10.544"/><rect x="1482.198" y="210.882" width="47.473" height="10.544"/><rect x="1392.528" y="210.882" width="42.198" height="10.544"/><rect x="1434.726" y="237.243" width="47.473" height="5.272"/><rect x="1529.671" y="237.243" width="47.472" height="5.272"/><rect x="1629.891" y="237.243" width="290.109" height="5.272"/><rect x="1434.726" y="247.787" width="47.473" height="5.272"/><rect x="1529.671" y="247.787" width="47.472" height="5.272"/><rect x="1629.891" y="247.787" width="290.109" height="5.272"/><rect x="1577.143" y="231.97" width="52.747" height="5.272"/><rect x="1577.143" y="242.515" width="52.747" height="5.272"/><rect x="1482.198" y="231.97" width="47.473" height="5.272"/><rect x="1392.528" y="231.97" width="42.198" height="5.272"/><rect x="1482.198" y="242.515" width="47.473" height="5.272"/><rect x="1392.528" y="242.515" width="42.198" height="5.272"/><rect x="1629.891" y="527.206" width="290.109" height="15.816"/><rect x="1529.671" y="527.206" width="47.472" height="15.816"/><rect x="1434.726" y="527.206" width="47.473" height="15.816"/><rect x="1577.143" y="543.022" width="52.747" height="15.816"/><rect x="1482.198" y="543.022" width="47.473" height="15.816"/><rect x="1392.528" y="543.022" width="42.198" height="15.816"/><rect x="1629.891" y="506.118" width="290.109" height="10.544"/><rect x="1529.671" y="506.118" width="47.472" height="10.544"/><rect x="1434.726" y="506.118" width="47.473" height="10.544"/><rect x="1434.726" y="485.029" width="47.473" height="10.544"/><rect x="1529.671" y="485.029" width="47.472" height="10.544"/><rect x="1629.891" y="485.029" width="290.109" height="10.544"/><rect x="1577.143" y="516.662" width="52.747" height="10.544"/><rect x="1482.198" y="516.662" width="47.473" height="10.544"/><rect x="1392.528" y="516.662" width="42.198" height="10.544"/><rect x="1577.143" y="495.573" width="52.747" height="10.544"/><rect x="1482.198" y="495.573" width="47.473" height="10.544"/><rect x="1392.528" y="495.573" width="42.198" height="10.544"/><rect x="1434.726" y="474.485" width="47.473" height="5.272"/><rect x="1529.671" y="474.485" width="47.472" height="5.272"/><rect x="1629.891" y="474.485" width="290.109" height="5.272"/><rect x="1434.726" y="463.941" width="47.473" height="5.272"/><rect x="1529.671" y="463.941" width="47.472" height="5.272"/><rect x="1577.143" y="479.757" width="52.747" height="5.272"/><rect x="1577.143" y="469.213" width="52.747" height="5.272"/><rect x="1482.198" y="479.757" width="47.473" height="5.272"/><rect x="1392.528" y="479.757" width="42.198" height="5.272"/><rect x="1482.198" y="469.213" width="47.473" height="5.272"/><rect x="1392.528" y="469.213" width="42.198" height="5.272"/><rect x="485.274" y="253.059" width="42.198" height="210.882"/><rect x="390.329" y="253.059" width="47.473" height="210.882"/><polygon points="342.857 463.941 342.857 253.059 290.109 253.059 290.109 463.941 0 463.941 0 469.213 290.109 469.213 290.109 463.941 342.857 463.941"/><rect y="173.978" width="290.109" height="15.816"/><rect x="342.857" y="173.978" width="47.473" height="15.816"/><rect x="437.802" y="173.978" width="47.473" height="15.816"/><rect x="290.109" y="158.162" width="52.747" height="15.816"/><rect x="390.329" y="158.162" width="47.472" height="15.816"/><rect x="485.274" y="158.162" width="42.198" height="15.816"/><rect y="200.338" width="290.109" height="10.544"/><rect x="342.857" y="200.338" width="47.473" height="10.544"/><rect x="437.802" y="200.338" width="47.473" height="10.544"/><rect x="437.802" y="221.426" width="47.473" height="10.544"/><rect x="342.857" y="221.426" width="47.473" height="10.544"/><rect y="221.426" width="290.109" height="10.544"/><rect x="290.109" y="189.794" width="52.747" height="10.544"/><rect x="390.329" y="189.794" width="47.472" height="10.544"/><rect x="485.274" y="189.794" width="42.198" height="10.544"/><rect x="290.109" y="210.882" width="52.747" height="10.544"/><rect x="390.329" y="210.882" width="47.472" height="10.544"/><rect x="485.274" y="210.882" width="42.198" height="10.544"/><rect x="437.802" y="237.243" width="47.473" height="5.272"/><rect x="342.857" y="237.243" width="47.473" height="5.272"/><rect y="237.243" width="290.109" height="5.272"/><rect x="437.802" y="247.787" width="47.473" height="5.272"/><rect x="342.857" y="247.787" width="47.473" height="5.272"/><rect y="247.787" width="290.109" height="5.272"/><rect x="290.109" y="231.97" width="52.747" height="5.272"/><rect x="290.109" y="242.515" width="52.747" height="5.272"/><rect x="390.329" y="231.97" width="47.472" height="5.272"/><rect x="485.274" y="231.97" width="42.198" height="5.272"/><rect x="390.329" y="242.515" width="47.472" height="5.272"/><rect x="485.274" y="242.515" width="42.198" height="5.272"/><rect y="527.206" width="290.109" height="15.816"/><rect x="342.857" y="527.206" width="47.473" height="15.816"/><rect x="437.802" y="527.206" width="47.473" height="15.816"/><rect x="290.109" y="543.022" width="52.747" height="15.816"/><rect x="390.329" y="543.022" width="47.472" height="15.816"/><rect x="485.274" y="543.022" width="42.198" height="15.816"/><rect y="506.118" width="290.109" height="10.544"/><rect x="342.857" y="506.118" width="47.473" height="10.544"/><rect x="437.802" y="506.118" width="47.473" height="10.544"/><rect x="437.802" y="485.029" width="47.473" height="10.544"/><rect x="342.857" y="485.029" width="47.473" height="10.544"/><rect y="485.029" width="290.109" height="10.544"/><rect x="290.109" y="516.662" width="52.747" height="10.544"/><rect x="390.329" y="516.662" width="47.472" height="10.544"/><rect x="485.274" y="516.662" width="42.198" height="10.544"/><rect x="290.109" y="495.573" width="52.747" height="10.544"/><rect x="390.329" y="495.573" width="47.472" height="10.544"/><rect x="485.274" y="495.573" width="42.198" height="10.544"/><rect x="437.802" y="474.485" width="47.473" height="5.272"/><rect x="342.857" y="474.485" width="47.473" height="5.272"/><rect y="474.485" width="290.109" height="5.272"/><rect x="437.802" y="463.941" width="47.473" height="5.272"/><polygon points="390.329 469.213 390.329 463.941 390.329 463.941 342.857 463.941 342.857 469.213 390.329 469.213"/><rect x="290.109" y="479.757" width="52.747" height="5.272"/><rect x="290.109" y="469.213" width="52.747" height="5.272"/><rect x="390.329" y="479.757" width="47.472" height="5.272"/><rect x="485.274" y="479.757" width="42.198" height="5.272"/><rect x="390.329" y="469.213" width="47.472" height="5.272"/><rect x="485.274" y="469.213" width="42.198" height="5.272"/><rect x="1629.891" y="137.073" width="290.109" height="21.088"/><rect x="1529.671" y="137.073" width="47.472" height="21.088"/><rect x="1434.726" y="137.073" width="47.473" height="21.088"/><rect y="137.073" width="290.109" height="21.088"/><rect x="342.857" y="137.073" width="47.473" height="21.088"/><rect x="437.802" y="137.073" width="47.473" height="21.088"/><rect x="1629.891" y="31.632" width="290.109" height="31.632"/><rect x="1577.143" y="0" width="52.747" height="31.632"/><rect y="31.632" width="290.109" height="31.632"/><rect x="290.109" y="0" width="52.747" height="31.632"/><rect x="1529.671" y="89.625" width="47.472" height="26.36"/><rect x="1434.726" y="89.625" width="47.473" height="26.36"/><rect x="1629.891" y="89.625" width="290.109" height="26.36"/><rect x="1529.671" y="31.632" width="47.472" height="31.632"/><rect x="1577.143" y="63.265" width="52.747" height="26.36"/><rect x="1482.198" y="63.265" width="47.473" height="26.36"/><rect x="1577.143" y="115.985" width="52.747" height="21.088"/><rect x="1482.198" y="115.985" width="47.473" height="21.088"/><rect x="1392.528" y="115.985" width="42.198" height="21.088"/><rect x="342.857" y="89.625" width="47.473" height="26.36"/><rect x="437.802" y="89.625" width="47.473" height="26.36"/><rect y="89.625" width="290.109" height="26.36"/><rect x="342.857" y="31.632" width="47.473" height="31.632"/><rect x="290.109" y="63.265" width="52.747" height="26.36"/><rect x="390.329" y="63.265" width="47.472" height="26.36"/><rect x="290.109" y="115.985" width="52.747" height="21.088"/><rect x="390.329" y="115.985" width="47.472" height="21.088"/><rect x="485.274" y="115.985" width="42.198" height="21.088"/><polygon points="569.67 543.022 569.67 527.206 527.473 527.206 527.473 543.022 569.67 543.022 569.67 558.838 606.593 558.838 606.593 543.022 569.67 543.022"/><rect x="1350.33" y="137.073" width="42.198" height="21.088"/><rect x="527.473" y="137.073" width="42.198" height="21.088"/><polygon points="1313.407 543.022 1313.407 558.838 1350.33 558.838 1350.33 543.022 1392.527 543.022 1392.527 527.206 1350.33 527.206 1350.33 543.022 1313.407 543.022"/><rect x="606.593" y="137.073" width="706.814" height="21.088"/><path d="M1313.407,158.162v15.816h36.923v15.816h-36.923v-15.816h-706.814v15.816h-36.923v-15.816h36.923v-15.816h-36.923v15.816h-42.197v15.816h42.197v10.544h-42.197v10.544h42.197v10.544s-42.197,0-42.197,0v10.544h42.197v5.272h-42.197v5.272h42.197v5.272h-42.197v5.272h42.197v210.882s-42.197,0-42.197,0v5.272h42.198v5.272h-42.198v5.272h42.198v5.272h-42.198v10.544h42.198v10.544h36.923v10.544h-36.923v10.544h36.923v15.816h706.814v-15.816h36.923v-10.544h-36.923v-10.544h36.923v-10.544h-36.923v-10.544h36.923v10.544h42.198v-10.544h-42.198v-5.272h-36.923v-5.272h36.923v-5.272h-36.923v-5.272h36.923v-210.882h42.198v-5.272h-42.198v-5.272h42.198v-5.272h-42.198v-5.272h42.198v-10.544h-42.198v-10.544h42.198v-10.544h-42.198v-10.544h42.198v-15.816h-42.198v-15.816h-36.923ZM606.593,495.573h-36.923v-10.544h36.923v10.544ZM606.593,479.757h-36.923v-5.272h36.923v5.272ZM606.593,469.213h-36.923v-5.272h36.923v5.272ZM606.593,253.059h-36.923v-5.272h36.923v5.272ZM606.593,242.515h-36.923v-5.272h36.923v5.272ZM606.593,231.97h-36.923v-10.544h36.923v10.544ZM606.593,210.882h-36.923v-10.544h36.923v10.544ZM1350.33,253.059h-36.923v-5.272h36.923v5.272ZM1350.33,242.515h-36.923v-5.272h36.923v5.272ZM1350.33,231.97h-36.923v-10.544h36.923v10.544ZM1350.33,210.882h-36.923v-10.544h36.923v10.544Z"/><rect x="1629.891" y="558.838" width="290.109" height="21.088"/><rect x="1529.671" y="558.838" width="47.472" height="21.088"/><rect x="1434.726" y="558.838" width="47.473" height="21.088"/><rect y="558.838" width="290.109" height="21.088"/><rect x="342.857" y="558.838" width="47.473" height="21.088"/><rect x="437.802" y="558.838" width="47.473" height="21.088"/><rect x="1629.891" y="653.735" width="290.109" height="31.632"/><rect x="1577.143" y="685.368" width="52.747" height="31.632"/><rect y="653.735" width="290.109" height="31.632"/><rect x="290.109" y="685.368" width="52.747" height="31.632"/><rect x="1529.671" y="601.015" width="47.472" height="26.36"/><rect x="1434.726" y="601.015" width="47.473" height="26.36"/><rect x="1629.891" y="601.015" width="290.109" height="26.36"/><rect x="1529.671" y="653.735" width="47.472" height="31.632"/><rect x="1577.143" y="627.375" width="52.747" height="26.36"/><rect x="1482.198" y="627.375" width="47.473" height="26.36"/><rect x="1577.143" y="579.926" width="52.747" height="21.088"/><rect x="1482.198" y="579.926" width="47.473" height="21.088"/><rect x="1392.528" y="579.926" width="42.198" height="21.088"/><rect x="342.857" y="601.015" width="47.473" height="26.36"/><rect x="437.802" y="601.015" width="47.473" height="26.36"/><rect y="601.015" width="290.109" height="26.36"/><rect x="342.857" y="653.735" width="47.473" height="31.632"/><rect x="290.109" y="627.375" width="52.747" height="26.36"/><rect x="390.329" y="627.375" width="47.472" height="26.36"/><rect x="290.109" y="579.926" width="52.747" height="21.088"/><rect x="390.329" y="579.926" width="47.472" height="21.088"/><rect x="485.274" y="579.926" width="42.198" height="21.088"/><rect x="606.593" y="558.838" width="706.814" height="21.088"/><rect x="527.473" y="558.838" width="42.197" height="21.088"/><rect x="1350.33" y="558.838" width="42.198" height="21.088"/><rect x="527.473" y="506.118" width="42.198" height="10.544"/><rect x="1350.33" y="506.118" width="42.198" height="10.544"/><rect x="1350.33" y="474.485" width="42.198" height="5.272"/><rect x="1350.33" y="463.941" width="42.198" height="5.272"/>
</svg>