<svg xmlns="http://www.w3.org/2000/svg" viewBox="0 0 80 80"><path d="M19.11,55.78c-1.562,1.562-1.562,4.095,0,5.657,1.562,1.562,4.095,1.562,5.657,0s1.562-4.095,0-5.657-4.095-1.562-5.657,0Z"/><path d="M28.61,55.78c-1.562,1.562-1.562,4.095,0,5.657,1.562,1.562,4.095,1.562,5.657,0s1.562-4.095,0-5.657-4.095-1.562-5.657,0Z"/><path d="M24.766,46.28c-1.562-1.562-4.095-1.562-5.657,0-1.562,1.562-1.562,4.095,0,5.657,1.562,1.562,4.095,1.562,5.657,0s1.562-4.095,0-5.657Z"/><polygon points="50.409 37.902 55.023 28.239 67.478 20.144 59.004 12 51.408 24.765 41.936 29.758 28.689 52.019 50.409 37.902"/><polygon points="60.241 65.385 15.137 65.385 15.137 32.934 34.082 32.934 34.082 30.319 12.522 30.319 12.522 32.934 12.522 68 62.856 68 62.856 49.084 60.241 49.084 60.241 65.385"/></svg>