<svg xmlns="http://www.w3.org/2000/svg" viewBox="0 0 80 80"><path d="M64.647,49.084v16.301h-22.491c2.181-.033,3.939-1.806,3.939-3.994,0-2.209-1.791-4-4-4s-4,1.791-4,4c0,2.188,1.759,3.961,3.939,3.994h-22.491v-16.301h-2.615v18.916h50.333v-18.916h-2.615Z"/><path d="M47.442,23.11c.648-1.097,1.021-2.376,1.021-3.742,0-4.069-3.299-7.368-7.368-7.368s-7.368,3.299-7.368,7.368c0,1.847.684,3.53,1.807,4.823l-22.795,19.77,1.353,2.217,37.797-15.855s-3.779-6.113-4.445-7.213ZM43.787,20.742c-.503.982-1.513,1.661-2.692,1.661-.915,0-1.726-.414-2.283-1.055-.462-.533-.752-1.219-.752-1.98,0-1.676,1.359-3.035,3.035-3.035s3.035,1.359,3.035,3.035c0,.497-.131.96-.343,1.374Z"/><circle cx="42.095" cy="51.891" r="4"/><circle cx="51.595" cy="51.891" r="4"/><circle cx="32.595" cy="51.891" r="4"/><circle cx="42.095" cy="42.391" r="4"/></svg>