<svg xmlns="http://www.w3.org/2000/svg" viewBox="0 0 80 80"><path d="M51.909,51.593c-.861-5.145,9.737-4.975,9.737-4.975l-19.046-2.893-2.06.737-.353,2.199,6.099,18.638s-2.004-10.622,3.111-10.65l4.066,13.352c.443-3.351,1.884-6.503,3.133-9.79,2.955-1.826,5.747-3.822,8.904-4.849l-13.591-1.767Z"/><path d="M51.909,28.407c-.861,5.145,9.737,4.975,9.737,4.975l-19.046,2.893-2.06-.737-.353-2.199,6.099-18.638s-2.004,10.622,3.111,10.65l4.066-13.352c.443,3.351,1.884,6.503,3.133,9.79,2.955,1.826,5.747,3.822,8.904,4.849l-13.591,1.767Z"/><path d="M25.082,42.253c-4.408,3.815,4.887,15.742,4.887,15.742l-14.71-13.83-2.759-4.165,2.759-4.165,14.71-13.83s-9.295,11.926-4.887,15.742l13.022-12.762c-2.002,3.229-6.08,11.244-7.338,15.015,1.259,3.771,5.336,11.785,7.338,15.015l-13.022-12.762Z"/></svg>