<svg xmlns="http://www.w3.org/2000/svg" viewBox="0 0 80 80"><path d="M74.11,13.739c-8.205-5.489-23.055,6.537-22.943,11.431.029,1.266,1.18,2.186,2.975,2.73,5.194,1.575,5.95-2.289,4.962-5.049-1.612-4.499-6.22,3.255-6.358,1.961-.323-3.04,12.173-11.002,16.593-7.832,7.583,5.44-6.002,20.159-6.925,20.049-1.296-.154-.961-8.171-11.619-4.516,6.809,3.02-2.219,8.315-4.818,8.838-3.456.695,3.748-5.125,1.683-9.19-1.884-3.709-5.975.567-7.66,3.551-1.685-2.984-5.775-7.26-7.66-3.551-2.065,4.065,5.139,9.885,1.683,9.19-2.599-.523-11.627-5.819-4.818-8.838-10.658-3.655-10.323,4.361-11.619,4.516-.923.11-14.509-14.609-6.925-20.049,4.42-3.17,16.916,4.792,16.593,7.832-.138,1.295-4.746-6.459-6.358-1.961-.989,2.76-.232,6.623,4.962,5.049,1.795-.544,2.946-1.464,2.975-2.73.112-4.894-14.737-16.92-22.943-11.431C-.231,17.833,1.352,28.815,15.205,38.568c-7.634,4.558-3.273,12.689-3.273,12.689,0,0-5.199,8.886,2.57,14.592,3.268,2.401,14.24,4.527,17.351-8.229.916-3.757,3.778.574,5.867-1.389,1.493-1.403,1.142-4.728.55-6.429-.712-2.046-2.67-5.144-2.137-6.931.675-2.262,2.677-3.271,3.867-4.752,1.19,1.481,3.192,2.491,3.867,4.752.533,1.787-1.424,4.885-2.137,6.931-.592,1.701-.943,5.027.55,6.429,2.09,1.963,4.951-2.368,5.867,1.389,3.111,12.757,14.083,10.63,17.351,8.229,7.769-5.707,2.57-14.592,2.57-14.592,0,0,4.361-8.131-3.273-12.689,13.854-9.753,15.436-20.735,9.315-24.83ZM25.115,41.329c1.225.116,3.226-2.385,5.042.574,1.18,1.921,1.564,3.101,1.121,3.282-1.763.719-8.756-2.314-11.843-5.785,1.872-2.042,4.157,1.785,5.68,1.929ZM29.515,46.81c-2.753,3.509-9.732,7.313-14.239,4.38,3.846-3.437,10.425-5.426,14.239-4.38ZM17.063,40.284c4.165,2.611-1.476,8.174-3.729,9.257-1.856-3.01-.472-8.321,3.729-9.257ZM17.624,59.721c-2.627,3.421-6.656-3.514-4.2-6.787,6.407,4.558,15.096-3.361,17.062-5.295,1.028-.81,2.714.198,2.557.86-.241,1.023-9.67,3.737-15.418,11.221ZM36.133,52.93c-1.355,3.472-2.745-.516-4.676.724-1.305.838-.591,2.945-1.102,4.919-.84,3.25-3.071,4.809-4.909,5.351-3.051.899-7.044-.837-4.922-4.829,2.39-4.496,10.11-7.569,12.529-9.244,2.256-1.561,4.098.471,3.08,3.078ZM49.843,41.903c1.817-2.959,3.817-.458,5.042-.574,1.523-.144,3.808-3.971,5.68-1.929-3.087,3.471-10.08,6.505-11.843,5.785-.444-.181-.059-1.36,1.121-3.282ZM64.724,51.19c-4.507,2.933-11.486-.871-14.239-4.38,3.814-1.046,10.393.943,14.239,4.38ZM54.554,63.924c-1.838-.542-4.069-2.101-4.909-5.351-.51-1.974.204-4.081-1.102-4.919-1.932-1.24-3.321,2.747-4.676-.724-1.018-2.607.824-4.639,3.08-3.078,2.419,1.674,10.14,4.748,12.529,9.244,2.122,3.992-1.872,5.728-4.922,4.829ZM62.376,59.721c-5.749-7.484-15.177-10.199-15.418-11.221-.156-.662,1.529-1.671,2.557-.86,1.966,1.933,10.654,9.853,17.062,5.295,2.455,3.273-1.573,10.207-4.2,6.787ZM66.666,49.541c-2.253-1.083-7.894-6.647-3.729-9.257,4.201.937,5.584,6.247,3.729,9.257Z"/></svg>