<?xml version="1.0" encoding="UTF-8"?><svg id="_레이어_1" xmlns="http://www.w3.org/2000/svg" viewBox="0 0 80 80"><path d="M20.289,20.264s-.003.003-.005.004c0,0-.002.002-.003.003-.002.002-.004.003-.005.005-.002.002-.004.004-.005.005,0,0-.002.002-.003.003-.002.002-.003.003-.004.005-7.417,7.43-7.413,19.467.012,26.892h0c6.044,6.044,15.144,7.171,22.327,3.38,1.681-.887,2.953-2.219,4.297-.874,2.606,2.606-1.745,7.964,3.316,13.024.646.646,1.367,1.171,2.136,1.575.384.202.78.374,1.184.515.269.094.543.175.818.242.414.101.833.172,1.255.212.281.027.564.04.846.04.423,0,.847-.03,1.267-.091.28-.04.558-.094.834-.162,1.517-.37,2.954-1.147,4.139-2.332.003-.003.005-.005.008-.008.003-.003.005-.005.008-.008,1.185-1.185,1.962-2.622,2.332-4.138.067-.276.121-.554.162-.834.061-.42.091-.843.091-1.267,0-.282-.014-.565-.04-.846-.04-.422-.111-.841-.212-1.255-.067-.276-.148-.549-.242-.818-.141-.404-.313-.8-.515-1.184-.404-.768-.929-1.49-1.575-2.136-5.061-5.061-10.133-.424-13.024-3.316-1.344-1.344-.013-2.616.874-4.297,3.791-7.184,2.665-16.283-3.38-22.327h0c-7.425-7.425-19.461-7.429-26.892-.012ZM42.935,24.523c5.084,5.084,5.085,13.328,0,18.412h0c-5.084,5.084-13.328,5.084-18.412,0h0c-5.084-5.084-5.084-13.328,0-18.412h0c5.084-5.085,13.328-5.085,18.412,0h0Z"/></svg>