<svg xmlns="http://www.w3.org/2000/svg" viewBox="0 0 80 80"><path d="M77.681,67.969l-21.125-18.652h10.047l-.036-3.275-13.78-.06-1.422-1.256,9.101-1.879-.883-3.154-11.323,2.291-.694-.613,5.603-3.046-1.669-2.818-.102.058,7.83-7.83-2.342-2.29-12.89,12.772-.304-.268,7.358-11.187-2.855-1.606-4.683,7.057,6.017-19.34-3.166-.842-5.388,16.253-.277-.071.953-13.373-3.276.006-1.036,13.737-2-7.923-3.162.854,2.139,7.733-2.714-4.091-2.855,1.606,7.431,11.298-.283.25-12.983-12.865-2.342,2.29,7.868,7.869-1.612,2.721,5.603,3.046-.694.613-11.323-2.291-.883,3.154,9.101,1.879-1.422,1.256-13.78.06-.036,3.275h10.047L2.319,67.969h75.362ZM29.945,57.829c0-.897.749-1.624,1.672-1.624s1.672.727,1.672,1.624-.749,1.624-1.672,1.624-1.672-.727-1.672-1.624ZM33.834,62.439c-.792,0-1.434-.623-1.434-1.392s.642-1.392,1.434-1.392,1.434.623,1.434,1.392-.642,1.392-1.434,1.392ZM35.287,54.026c0-.512.428-.928.956-.928s.956.415.956.928-.428.928-.956.928-.956-.415-.956-.928ZM36.941,50.718c0-.384.321-.696.717-.696s.717.312.717.696-.321.696-.717.696-.717-.312-.717-.696ZM37.151,64.593c-.792,0-1.434-.623-1.434-1.392s.642-1.392,1.434-1.392,1.434.623,1.434,1.392-.642,1.392-1.434,1.392ZM37.658,58.494c-.66,0-1.195-.519-1.195-1.16s.535-1.16,1.195-1.16,1.195.519,1.195,1.16-.535,1.16-1.195,1.16ZM41.066,65.115c-.66,0-1.195-.519-1.195-1.16s.535-1.16,1.195-1.16,1.195.519,1.195,1.16-.535,1.16-1.195,1.16ZM41.066,60.1c-.792,0-1.434-.623-1.434-1.392s.642-1.392,1.434-1.392,1.434.623,1.434,1.392-.642,1.392-1.434,1.392ZM42.809,57.334c0-.897.749-1.624,1.672-1.624s1.672.727,1.672,1.624-.749,1.624-1.672,1.624-1.672-.727-1.672-1.624ZM44.981,64.361c-.66,0-1.195-.519-1.195-1.16s.535-1.16,1.195-1.16,1.195.519,1.195,1.16-.535,1.16-1.195,1.16ZM50.518,57.133c.396,0,.717.312.717.696s-.321.696-.717.696-.717-.312-.717-.696.321-.696.717-.696ZM48.296,60.119c.528,0,.956.415.956.928s-.428.928-.956.928-.956-.415-.956-.928.428-.928.956-.928ZM44.482,48.394c1.32,0,2.389,1.038,2.389,2.319,0,.576-.224,1.096-.582,1.502.859.182,1.502.922,1.502,1.811,0,1.025-.856,1.856-1.911,1.856s-1.911-.831-1.911-1.856c0-.374.116-.721.312-1.013-1.224-.101-2.188-1.086-2.188-2.3,0-1.281,1.07-2.319,2.389-2.319ZM33.834,45.151c.374,0,.721.108,1.015.289-.051-.189-.088-.384-.088-.589,0-1.281,1.07-2.319,2.389-2.319.49,0,.945.144,1.325.39.457-.947,1.441-1.608,2.59-1.608,1.583,0,2.867,1.246,2.867,2.783s-1.284,2.783-2.867,2.783c-.747,0-1.421-.284-1.931-.738-.429.62-1.157,1.028-1.984,1.028-.543,0-1.037-.182-1.439-.478.018.103.033.207.033.315,0,1.025-.856,1.856-1.911,1.856s-1.911-.831-1.911-1.856.856-1.856,1.911-1.856ZM31.617,48.369c1.056,0,1.911.831,1.911,1.856s-.856,1.856-1.911,1.856-1.911-.831-1.911-1.856.856-1.856,1.911-1.856ZM30.838,52.402c.924,0,1.672.727,1.672,1.624s-.749,1.624-1.672,1.624-1.672-.727-1.672-1.624.749-1.624,1.672-1.624Z"/></svg>