<?xml version="1.0" encoding="UTF-8"?><svg id="_레이어_1" xmlns="http://www.w3.org/2000/svg" viewBox="0 0 80 80"><polygon points="70.437 50.66 70.396 46.913 54.629 46.845 53.003 45.408 63.415 43.258 62.405 39.649 49.451 42.27 48.657 41.568 55.067 38.083 53.157 34.859 53.04 34.925 61.998 25.967 59.319 23.347 44.572 37.96 44.225 37.653 52.644 24.853 49.377 23.016 44.02 31.09 50.905 8.963 47.283 8 41.118 26.595 40.802 26.514 41.892 11.213 38.145 11.22 36.959 26.936 34.671 17.871 31.053 18.848 33.501 27.696 30.396 23.016 27.13 24.853 35.632 37.78 35.308 38.066 20.454 23.347 17.775 25.967 26.777 34.97 24.933 38.083 31.343 41.568 30.549 42.27 17.595 39.649 16.585 43.258 26.997 45.408 25.371 46.845 9.604 46.913 9.563 50.66 19.39 50.66 19.39 72 33.951 72 33.951 53.963 46.049 53.963 46.049 72 60.61 72 60.61 50.66 70.437 50.66" style="fill:#040000;"/></svg>