<svg xmlns="http://www.w3.org/2000/svg" viewBox="0 0 1400 1000"><path d="M1105.874,452.503c-67.33-57.481,28.795-198.679,63.073-177.702,33.842,20.71-29.714,101.605-19.948,126.965,19.688,51.128,102.442-4.149,88.646-19.737-9.78-11.05-36.054,23.093-48.96,11.128s56.475-115.236,20.232-151.819c-29.404-29.678-57.054,10.849-67.577,6.771-19.738-7.65-23.857-47.168-14.483-57.094,21.008,7.478,48.615-4.752,60.69-39.6,12.074-34.847-12.342-59.013-44.682-32.478,16.788-23.697,32.594-51.148,20.342-51.148-19.765,0-81.387,127.97-95.737,127.263-11.222-.553,23.719-73.341,3.076-58.333-19.303,14.033-93.352,152.668-101.461,152.33-8.845-.369,14.747-62.581-.666-59.342-13.992,2.94-30.332,89.133-24.011,115.948.607,2.575-2.11,4.641-4.405,3.324-42.102-24.169-45.58-85.508-73.976-122.115-26.449-34.098-69.883-36.031-91.338-24.996-1.308.673-2.562-.977-1.564-2.058,28.362-30.699,23.556-129.151-20.447-132.311-52.926,2.532-46.536,134.43,1.053,137.618h0c-52.122,12.173-62.601-39.92-80.291-26.652-14.468,10.851,28.746,64.793,1.588,92.675-25.232,25.904-71.834-45.348-101.094-27.882-15.63,9.329-19.303,30.815-24.07,40.907-18.158-45.039-49.818-104.166-83.393-35.432-4.08,8.353-2.686-37.424-18.326-53.356-.663-.676-.125-1.826.815-1.714,24.431,2.925,38.871-36.564,9.258-84.843-27.889-41.34-58.839-28.152-57.995,12.517-26.631-59.765-55.765-28.967-22.952,32.314,15.661,23.899,22.178,12.023,26.26-13.113,8.676,21.984,18.525,36.341,28.074,44.556.735.633.222,1.804-.745,1.73-56.836-4.379-96.772,198.962-174.132,227.843-44.089,16.46-58.055-17.392-67.431-9.593-10.058,8.367,40.516,34.97,26.412,41.8-13.876,6.72-47.366-23.501-55.269-12.714-6.139,8.378,42.212,38.853,70.183,41.14,53.047,4.439,37.707-48.067,93.929-46.315,54.987,1.714,73.716,61.627,14.042,88.874-63.361,28.931-128.115,89.188-145.805,159.948-14.52,58.08-25.458,72.972-63.05,123.987-52.511,71.262-89.362,127.789-36.186,129.925,64.566,2.594,49.331-76.23,58.448-119.885,6.793-32.527,53.228-56.08,122.285-136.238,63.481-73.686,92.672-125.859,122.05-177.57,21.604-38.028,70.73-102.404,90.252-79.877,23,26.541-31.895,74.613-11.353,104.409,27.029,39.204,97.207-13.807,85.05-27.18-11.056-12.162-46.42,30.141-49.778,6.634-4.975-34.827,105.091-242.609,157.667-190.969,41.068,40.337-81.321,102.317-64.346,119.588,12.869,13.094,88.71-23.222,104.889-10.485,16.679,13.129-41.231,18.083-35.516,32.061,4.06,9.929,92.073,18.181,73.309,24.904-17.286,6.194-111.861,22.888-168.942,121.387-36.51,63.001-29.647,164.809,80.091,195.76,31.342,8.84-37.077,60.627-53.997,85.88-20.303,30.303-14.928,52.913,27.102,52.35,48.633-.651,82.195-113.965,75.768-130.622-5.763-14.934-12.392-15.982-38.046-31.347-34.758-20.817-48.215-74.47-21.091-138.971,35.31-83.969,138.074-122.375,162.893-109.833,47.714,24.112-69.171,66.032-42.341,68.07,36.584,2.779,126.78-29.584,159.908-89.788,5.417-9.844,15.339-36.596,8.958-41.106-12.207-8.628-19.275,31.641-26.685,31.745-15.04.211,18.639-101.302-151.608-91.924-27.968,1.541,14.066-62.522,70.071-54.23,18.226,2.699-22.997-42.627-40.613-72.952-7.055-12.145-5.361-41.181,23.557-38.427,21.447,2.043,34.6,34.466,38.127,42.562,17.689,40.595,25.21,98.396,84.622,118.199,49.293,16.431,98.205-23.219,109.261-8.845,6.359,8.267-75.287,120.825-14.919,170.464,57.979,47.676,224.207-87.181,251.145-41.8,23.054,38.838-155.671,87.864-182.751,152.303-22.981,54.685-44.107,112.558-61.655,137.186-48.146,67.567-87.118,124.492-36.941,128.664,63.022,5.24,52.556-71.048,60.036-120.003,8.404-55.002,274.005-253.926,273.935-306.338-.099-73.643-177.668-11.291-226.518-52.995ZM508.692,382.291c-10.367,10.213,3.815-36.721-28.903-34.514-36.873,2.488-51.234,71.201-77.505,75.459-20.637,3.345-9.155-54.762,27.544-103.902,99.483-133.207,103.568,38.62,78.864,62.956ZM1055.974,351.288c-17.048,4.417,10.904-47.475-5.681-48.304-18.668-.933-43.863,64.089-91.426,53.588-2.505-.553-3.231-3.805-1.167-5.328,29.266-21.596,95.825-162.608,135.863-127.582,33.481,29.29-22.519,123.721-37.589,127.626Z"/></svg>