<svg xmlns="http://www.w3.org/2000/svg" viewBox="0 0 1600 1000">
  <path d="M836.8,204.5c64.1-5.6,68.1-135.1-1.4-139.1-70.4,2.7-61.9,135.7,1.4,139.1Z"/>
  <path d="M1335.3,190.9c-46.2-20.8-91.1,70.2-60.7,96.9,13.4,12.1,38.2,8.3,56-10.5,9.5,24.7,36.2,25.7,53.5,19.8,50.5-23.8-14.7-77.4-43.6-43.9,12.6-17.9,15.6-51.9-5.2-62.3h0Z"/>
  <path d="M526.7,719.7c-12.3-14.1-73.2-25.4-60.3,5.6,1.1,2.4.4,3.2-2.3,2.5-45.8-16.4-92.4,13-24.7,42,42.9,15.7,63.7.4,55.1-17.6-2.2-4.7.6-3.8,2.6-3.6,34.5,4.3,45.8-14.3,29.5-29h0Z"/>
  <path d="M1153.4,733.2c-31.9-17-57-5.2-45,19.4,29.1,55.4,122.2,35.7,45-19.4Z"/>
  <path d="M367.4,144.4c39,104,125.6,54.2,74.1-27.5-31.3-44.7-72.7-34-76.2,7.6-27.6-63.4-89.9-54.2-54.5,11.3,17.5,25.8,48.5,33.9,56.6,8.6h0Z"/>
  <path d="M1301,447.5c40.3-32.6,77.6,147.9,120.8-16.9,35.9-137,62.5,110,75.3,169.8,11.9,55.6,78.9-54.2,86.1-105.1,3.8-26.6-11.3-39.4-25.3-20.5-21.4,29-40.1,5.7-50.4-13.7-24.5-46.1-23.8-141.1-79.9-103.1-207,149.6-244.3-125.3-140.5-187.9,32.5-16.2,71-.7,81.2,4.9,96.8,56.2,80.2-53.5,11-29.7-55.9,9.1-54.6-27.8-15.3-21.1,123.1,20.9,61-70.1,22-54.4-51.2,20.6-141.5,101.5-159,98.1-17.1-3.4,20.9-82.4,2.3-86.4-22.2-4.8-102.9,159.4-119.5,157.4-16.2-2,16.6-68.4-1.7-71.6-14.6-2.6-77,131.5-69.4,144.2,16.8,28.3,204.2-190.6,150.2,28.9-17.3,69.4-16.8-85.9-54-13.3-98,203.4-146.4-108.4-185-125.8-22.2-10-87,58.6-114.3,61.5-27.3,2.8-71.2-84.5-94.7-78.7-21.2,5.3,40.9,71.2,14,96.1-10.8,10-19.1,7.9-34.8,8.4-50.9,1.7-126.8,24.1-174.3,85.5s-22.2,79.5-38.1,59.6c-73.7-92.1-146.7,68.3-175.3,52.5-32.3-17.8,79.6-161.7,133.5-191.3,45.8-25.1,60.9,25.2,105.3,5.4,17.5-7.8,157.9-144.3,137-158-22.5-14.8-87.5,101.1-155.9,40.5-39.8-35.3,11.3,75.5-4.1,87.1-17.7,13.3-56.7-52.3-72.3-50.9-16.4,1.5-32.4,53.7-53.8,53.7s-71.7-78.6-93.1-74.4c-32.7,6.3-6.2,167.8-179.1,110.7-26.6-8.8-35.8,2.2-27,16.3,11,17.6,21,26-15.9,12.3-39.8-14.9-71.4,74.5,14.8,29.1,27.5-14.5,38.1,15.2-5.8,20.8-35.1,2.8-57.3,39.3-25.7,57.6,44.7,15.5,52.3-64.4,84.1-61.8,49,4.1,45.4-59.2,96-47.4,50.4,11.8,50.2,139.5-36.6,171.5-82.1,30.3-152.2,81.9-155.4,209.9-2,80.2-56.8,73.1-62.3,98.4-3.1,107.9,205.7,90.7,153.4,47.6-5.1-4.1-1.5-5.1,2.5-3.8,68.2,22,94.8-20,42.2-44.2-34-15.6-81.7-3.8-72.9,17.7,2.7,6.6,1.5,7.8-7,3.7-147.8-70.3,44.7-45,110-154.3,46.7-64.9,45.6-127.2,119.5-170.5,105.8-62.2,217.8,37.4,193.7,73-17.6,26-63.7,26.1-95.2-8.1-39.2-42.5-115.2,109.9-85.6,130.4,26.9,18.7,182.9-53.9,207.3-117.9,15.1-39.7-40.9-100.4-35.2-105.3,5.8-4.8,116.8,94.1,103.4-56.2-10.7-121,50.3-128.8,78-93.7,59.3,75-49.9,111.7-12.7,151.7,20.4,21.9,67.1,6.6,74.8,24.3,12.3,28.6-35.6,40.3-143.9,116.2-115.8,81.2-36.6,184.8,104.3,187.8,140.9,3.1-63.6,40.4-64.9,89.4-1,37.6,124.6,52.1,142.3-19.4,24.5-99.6-21.8-73.6-69.7-129.7-47.9-56.1-10.7-182.6,82.3-195.3,103.1-14.1,34.5,165,163.3,182.3,118.7,15.9,160.2-141.5,13.6-186.2-66.7-20.4-121.3-24.7-110.1-51.2,8.3-19.6,62.3-15.5,73.9-47.5,27-74.1-198.8-75.6-125.2-167.9,59.9-75.2,125.2,167.9,282,152.9,15.9-1.1,17.2-.6.5,29.5-13.3,24-72.5,157.3,86.9,117.6s198.9,71.2,174.6,145.4c-28,85.7-55.4,34.5-53.7,73.7,2.5,57.5,74.4,91.2,162,56.7,116.9-46-19.9-122.4-40.6-69.7-32,81.4-91.4-27-2.1-102.2,87.5-73.7-242-184.5-167.2-244.8l.4-.2Z"/>
</svg>