<svg xmlns="http://www.w3.org/2000/svg" viewBox="0 0 1000 1000">
  <path d="M669.595,715.75c8.692,24.322,27.764,39.104,54,39.6,17.942.339,36.6-8.2,49.3-15.4,20.1-11.3,54-39.5,76.8-59.2l-57.3,96.4,39,22.5,112-193.9-38.7-22.4s-94.9,77.2-96.4,78.5c-51.7,43.5-74.6,47.1-84.7,42.4-17.4-8-13.2-35.1-10.6-46.4,10.1-43.9,47.9-96.3,79.7-95.7h0c2,0,4.5.7,5.6,2.8.3.5.3,1.1.2,1.7-1.6,7.1-8.311,39.773-8.4,43.3-.089,3.527.9,5.5,2.6,7.2,1.4,1.4,3.3,1.9,5.2,2.2s4-.9,5.3-2.2,2-2.3,2.7-3.7c12.5-25.4,28.6-51.5,41.1-66.6,5.7-6.8,5.001-16.954-1.2-23-5.577-5.437-22.172-17.3-41.3-17.3-24.1,0-46.6,14.8-54.1,20.1-24.1,17.5-49.3,49.8-65.8,84.2-19,39.7-24.632,77.946-15,104.9Z"/><path d="M604.689,803.25v-5.8c0-13.9-2.7-26.5-8.1-37.5-5.4-11-13.4-20.4-23.8-28l-4.7-3.4-.2.4c-9.3-5.8-20.3-10.4-32.7-13.7-14.5-3.8-31.3-5.7-49.8-5.7s-33.7,1.7-48.3,5.3c-14.5,3.6-26.9,9-36.9,15.9-10.2,7.1-18.2,15.9-23.6,26.3-5.4,10.3-8.2,22.3-8.2,35.6s1.7,19.8,4.9,27.8c3.3,7.7,7.8,14.6,13.3,20.3,5.5,5.6,12,10.3,19.3,14s14.9,6.8,22.4,9c7.3,2.2,15.2,4.2,23.5,5.8,7.8,1.5,15.4,2.8,22.6,3.9l16.1,2.6c5.4.8,11,1.8,16.4,2.7,5.1.9,10.3,2,15.6,3.4,4.3,1.1,8.7,2.6,13.5,4.5,3.8,1.6,7.3,3.6,10.1,5.9,2.8,2.3,4.8,4.7,6.2,7.4,1.5,2.9,2.2,6.2,2.2,9.9s-1.7,10.7-4.5,14.9c-3,4.6-7.4,8.7-13.1,12.1-5.7,3.5-12.8,6.3-20.9,8.3-8.3,2-17.3,3-26.8,3s-20.2-1.2-28.1-3.4c-8.3-2.2-15.3-5.4-20.9-9.4-5.5-3.8-9.9-8.5-12.9-13.9-2.9-5.3-4.4-11.2-4.4-17.8v-5.8h-45.2v5.8c0,13,2.7,25,8.1,35.8,5.4,10.7,13.1,19.9,22.9,27.3,9.7,7.4,21.5,13.1,35.2,17.1,13.7,3.9,29,5.9,45.4,5.9s30.9-1.8,44.4-5.5,25.2-9.1,34.9-16c9.9-7,17.6-15.6,23.1-25.6,5.5-10.2,8.3-21.5,8.3-33.7s-1.6-17.9-4.8-25.1c-3.2-7.1-7.5-13.3-12.7-18.4-5.1-5-11.3-9.3-18.3-12.8-6.4-3.2-13.5-6-21-8.3-7-2.2-14.5-4-22.2-5.5-6.5-1.2-13.4-2.5-21.3-3.9l-15.9-2.7c-6.4-1-12.5-2.1-18.1-3.2-6.9-1.4-12.3-2.6-17-4-5.5-1.6-10.4-3.4-14.6-5.4-4.4-2.1-8.2-4.4-11.2-7.1-2.9-2.5-5.2-5.5-6.9-9.1-1.6-3.4-2.5-7.5-2.5-12.2s1.6-11.9,4.6-16.7c3.1-4.9,7.7-9.1,13.6-12.6,6.1-3.6,13.8-6.4,22.7-8.3,9.3-2,19.8-3,31-3s23.6,1.2,32.6,3.3c9.2,2.2,17,5.3,23.1,9.4,5.8,3.8,10.4,8.6,13.5,14.3,3,5.4,4.5,11.9,4.5,19.4v5.8h45.4l.2.4Z"/><path d="M145.589,259.35h0c11-19.4,4.5-28.5-2.9-32.8-11-6.3-28-7.5-46.5,23.2-7.6,12.7-18.1,25.8-31,38.8s-24.7,22.5-35.2,28.4l-2.7,2.2v.7c-.4.8-.6,1.9-.4,3.1s1,2.9,3.4,4.3l.6.3h.7c10.6,3.1,22.7,2.6,36.2-1.4l.6-.2h.1c10.9-3.4,19.7-7.4,26.4-11.9.3,17.4,1.1,31.5,2.3,40.9v.7c.5,1.7,1.6,3.1,3.1,4,.7.4,1.5.7,2.3.7s.7,0,1.1-.1c1.5-.4,2.9-1.6,4-3.5l.3-.6v-.7c6.6-33.7,14.5-58.6,23.4-74.1l14-22h.2Z"/><path d="M355.289,356.85c-7.9-40.2-31.8-72.1-71.2-94.8-26.1-15-50.3-20.2-71.8-15.3h-.5c-21.8,5.1-39.2,18.5-51.5,40-12.1,20.9-19.4,49.6-21.7,85.4-.7,11.1-2.5,19.4-5.5,24.8-2.7,4.7-8,7.7-15.8,9h-.4l-4.4,2.2-.6,1.1c-.9,1.7-.8,3.7.2,5.7l.4.7c4.7,5.9,10.8,11,17.9,15,7.7,4.5,17.6,5.8,29.3,3.8,11.8-2,20.5-7.7,25.9-16.8,2.8-4.9,3.3-11.1,1.3-18.4-.4-1.3-.8-3.4-1.2-5.7l-4.5-22.3c-2.3-11.9-3.6-23-3.9-33-.3-9.8,2.5-19.8,8.3-29.8,5.6-9.7,13.6-15.7,23.7-17.9,10.3-2.2,22.8.8,37.1,9.1,34.2,19.8,57.4,45.6,69,76.6,11.6,31.2,13.1,66.7,4.4,105.5-.8,2.8.4,5.4,3,7h0c1,.6,2,.8,3,.8,2.1,0,4-1.2,5.3-3.4h0c23.5-46,31.5-89.4,23.8-129.3h.4Z"/><path d="M599.689,179.65c-3.3-7.9-7.9-14.8-13.4-20.4-5.5-5.6-12-10.3-19.3-14s-14.9-6.8-22.4-9c-7.3-2.2-15.2-4.2-23.5-5.8-7.3-1.4-14.9-2.7-22.6-3.9l-16.1-2.6c-5.4-.8-11-1.8-16.4-2.7-5.1-.9-10.3-2-15.6-3.4-4.3-1.1-8.7-2.6-13.5-4.5-3.8-1.6-7.3-3.6-10.1-5.9-2.8-2.3-4.8-4.7-6.2-7.4-1.5-2.9-2.2-6.2-2.2-9.9s1.7-10.7,4.5-14.9c3-4.6,7.4-8.7,13.1-12.1,5.7-3.5,12.8-6.3,20.9-8.3,8.3-2,17.3-3,26.8-3s20.2,1.2,28.1,3.4c8.3,2.2,15.3,5.4,20.9,9.4,5.5,3.8,9.9,8.5,12.9,13.9,2.9,5.3,4.4,11.3,4.4,17.8v5.8h45.2v-5.8c0-13-2.7-25-8.1-35.8-5.4-10.7-13.1-19.9-22.9-27.3-9.7-7.4-21.5-13.1-35.2-17.1-13.7-3.9-29-5.9-45.4-5.9s-30.9,1.8-44.4,5.5c-13.5,3.7-25.2,9.1-34.9,16-9.9,7-17.6,15.6-23.1,25.6-5.5,10.2-8.3,21.5-8.3,33.7s1.6,17.9,4.8,25.1c3.2,7.1,7.5,13.3,12.7,18.4,5.1,5,11.3,9.3,18.3,12.8,6.5,3.2,13.5,6,21,8.3,7,2.2,14.5,4,22.2,5.5,6.5,1.2,13.4,2.5,21.3,3.9l15.9,2.7c6.4,1,12.5,2.1,18.1,3.2,6.9,1.4,12.3,2.6,17,4,5.5,1.6,10.4,3.4,14.6,5.4,4.4,2.1,8.2,4.4,11.2,7.1,2.9,2.5,5.2,5.5,6.9,9.1,1.6,3.4,2.5,7.5,2.5,12.2s-1.6,11.9-4.6,16.7c-3.1,4.9-7.7,9.1-13.6,12.6-6.1,3.6-13.8,6.4-22.8,8.3-9.3,2-19.8,3-31,3s-23.6-1.2-32.6-3.3c-9.2-2.2-17-5.3-23.1-9.4-5.8-3.8-10.4-8.6-13.5-14.3-3-5.4-4.5-11.9-4.5-19.4v-5.8h-45.4v5.8c0,13.9,2.7,26.5,8.1,37.5s13.4,20.4,23.8,28l2.8,2,.4-.2c9.7,6.5,21.3,11.5,34.6,14.9,14.5,3.8,31.3,5.7,49.8,5.7s33.8-1.7,48.3-5.3c14.5-3.6,26.9-9,36.9-15.9,10.3-7.1,18.3-16,23.6-26.3,5.4-10.3,8.2-22.3,8.2-35.6s-1.7-19.8-4.9-27.8l-.2-.3Z"/><polygon points="652.689 428.95 858.489 324.45 833.289 282.15 638.189 380.15 734.789 287.65 699.389 253.45 485.889 466.45 515.189 518.95 973.189 394.05 959.689 346.65 652.689 428.95"/><path d="M80.689,642.4c0-37.9,10.9-73.4,32.4-105.7l.8-1.2H44.489v214.5h69.3l-.9-1.2c-21.5-29.9-32.3-65.7-32.3-106.4h.1Z"/><path d="M265.089,535.6l.8,1.2c21.5,32.3,32.4,67.8,32.4,105.7s-10.9,76.6-32.3,106.4l-.9,1.2h69.3v-214.5h-69.3Z"/><rect x="167.189" y="619.3" width="44.4" height="47.2"/>
</svg>