<svg xmlns="http://www.w3.org/2000/svg" viewBox="0 0 80 80">
  <path d="M4.586,57.583c-.335,0-.586-.316-.586-.678v-2.982c0-.361.251-.678.586-.678h15.736v-9.67c0-.407.209-.633.586-.633h3.641c.335,0,.628.271.628.633v9.67h15.862c.293,0,.628.362.628.678v2.982c0,.316-.335.678-.628.678H4.586ZM7.976,44.795l-1.507-2.802c-.209-.497.042-.904.418-1.039,8.328-3.344,12.555-7.546,13.351-16.087.042-.407.209-.949.67-.904l3.641.181c.46.045.711.362.67.994-.042.768-.126,1.536-.251,2.214,1.339,5.784,7.073,10.755,13.476,12.698.335.136.46.588.293.904l-1.381,2.892c-.209.452-.544.633-1.005.497-5.106-1.446-10.714-5.377-13.476-10.393-2.804,5.287-7.743,9.038-13.978,11.252-.209.136-.628.09-.921-.407Z"/><path d="M72.265,35.164c-2.459-1.787-5.577-2.693-9.266-2.693-5.083,0-10.373.986-15.785,2.936-1.33.479-3.829,1.569-5.125,2.142-.422.186-.555.719-.272,1.083l2.023,2.675c.211.271.586.352.89.191,1.043-.552,6.158-2.508,6.791-2.727,3.678-1.276,7.438-1.919,11.242-1.919,2.499,0,4.495.527,5.932,1.567,1.437,1.04,2.135,2.471,2.135,4.375,0,2.487-1.799,4.794-5.346,6.857-2.053,1.194-4.682,2.074-7.861,2.635-1.783.315-5.444.837-7.335.945-.503.029-.815.559-.597,1.014l1.268,2.935c.127.265.405.424.698.399,1.3-.111,4.891-.444,6.973-.904,1.329-.294,2.703-.655,4.117-1.084,4.182-1.267,7.467-3.116,9.767-5.495,2.313-2.393,3.486-4.96,3.486-7.63,0-3.044-1.257-5.501-3.735-7.303Z"/><rect x="53.124" y="22.417" width="8.44" height="8.44" rx="4.22" ry="4.22"/>
</svg>