<svg xmlns="http://www.w3.org/2000/svg" viewBox="0 0 80 80"><path d="M67.682,43.836c-1.112-3.261-5.595,1.663-6.998-3.71.579-5.668,6.007-1.64,7.014-3.674-.681-7.137,3.076-15.694-4.908-12.831-.722.259-1.451,1.333-2.255,1.675-3.102,1.317-7.553,3.196-10.092,6.943v-9.185H12v33.89h38.443v-9.203s1.946,2.098,5.504,4.755c3.629,2.71,7.42,4.112,8.438,4.32,5.06,1.034,3.155-4.416,2.981-8.476-.064-1.502.873-2.874.317-4.505ZM21.155,44.238c-2.34,0-4.237-1.897-4.237-4.237s1.897-4.237,4.237-4.237,4.237,1.897,4.237,4.237-1.897,4.237-4.237,4.237ZM31.217,54.3c-2.34,0-4.237-1.897-4.237-4.237s1.897-4.237,4.237-4.237,4.237,1.897,4.237,4.237-1.897,4.237-4.237,4.237ZM31.217,44.238c-2.34,0-4.237-1.897-4.237-4.237s1.897-4.237,4.237-4.237,4.237,1.897,4.237,4.237-1.897,4.237-4.237,4.237ZM31.217,34.176c-2.34,0-4.237-1.897-4.237-4.237s1.897-4.237,4.237-4.237,4.237,1.897,4.237,4.237-1.897,4.237-4.237,4.237ZM41.279,44.238c-2.34,0-4.237-1.897-4.237-4.237s1.897-4.237,4.237-4.237,4.237,1.897,4.237,4.237-1.897,4.237-4.237,4.237ZM53.404,44.856c-1.225.06-2.959-1.734-2.959-1.734v-6.257s1.316-1.477,2.01-1.666c1.907-.52,5.257,1.885,5.257,4.801s-2.651,4.774-4.307,4.856Z"/></svg>